<svg xmlns="http://www.w3.org/2000/svg" viewBox="0 0 40.06 27.15">
	<path d="M25.61,27.15H6.44a6.44,6.44,0,0,1-.15-12.88,10.06,10.06,0,0,1,18.54-2,7,7,0,0,1,.78,0,7.45,7.45,0,1,1,0,14.89ZM6.44,15.27a5.44,5.44,0,1,0,0,10.88H25.61a6.44,6.44,0,1,0,0-12.89,6.56,6.56,0,0,0-1,.08.5.5,0,0,1-.52-.27A9.06,9.06,0,0,0,7.16,14.9a.51.51,0,0,1-.5.38Z"/>
	<path d="M25.61,27.15a.5.5,0,0,1,0-1,6.44,6.44,0,1,0-4.86-10.68.5.5,0,1,1-.75-.66,7.45,7.45,0,1,1,5.61,12.34Z"/>
	<path d="M32.62,20.15a.5.5,0,0,1,0-1,6.44,6.44,0,1,0,0-12.89,6.56,6.56,0,0,0-1,.08.5.5,0,0,1-.52-.27A9.06,9.06,0,0,0,14.16,7.9a.51.51,0,0,1-.5.38h-.13a.54.54,0,0,1-.55-.5.48.48,0,0,1,.3-.48,10.06,10.06,0,0,1,18.55-2,7,7,0,0,1,.78,0,7.44,7.44,0,1,1,0,14.89Z"/>
	<path d="M32.62,20.15a.5.5,0,0,1,0-1A6.44,6.44,0,1,0,27.76,8.47.5.5,0,1,1,27,7.81a7.45,7.45,0,1,1,5.61,12.34Z"/>
</svg>