<svg xmlns="http://www.w3.org/2000/svg" viewBox="0 0 52 48.35">
	<path d="M51.91,14.42C51.15,6.06,45.24,0,37.84,0a14,14,0,0,0-12,6.91A13.48,13.48,0,0,0,14.16,0C6.76,0,.84,6.06.09,14.42a14.86,14.86,0,0,0,.44,5.48,23.5,23.5,0,0,0,7.2,12L25.84,48.35,44.27,31.91a23.5,23.5,0,0,0,7.2-12A14.9,14.9,0,0,0,51.91,14.42Zm-2.39,5a21.49,21.49,0,0,1-6.59,11L25.85,45.65,9.07,30.42a21.5,21.5,0,0,1-6.6-11,13,13,0,0,1-.42-4.7l0-.1C2.72,7.31,7.81,2,14.16,2A11.72,11.72,0,0,1,24.93,9.51l.92,2.18.92-2.18A12.08,12.08,0,0,1,37.84,2c6.35,0,11.43,5.31,12.1,12.73A13,13,0,0,1,49.52,19.43Z"/>
	<path d="M16,6.08a10,10,0,0,0-10,10,1,1,0,0,0,2,0,8,8,0,0,1,8-8,1,1,0,1,0,0-2Z"/>
</svg>