<svg xmlns="http://www.w3.org/2000/svg" viewBox="0 0 31.01 22.05">
	<g id="Слой_2" data-name="Слой 2">
		<g id="Capa_1" data-name="Capa 1">
			<path d="M28.51,22H2.5A2.5,2.5,0,0,1,0,19.55V2.5A2.5,2.5,0,0,1,2.5,0h26A2.5,2.5,0,0,1,31,2.5v17A2.5,2.5,0,0,1,28.51,22ZM2.5,1A1.5,1.5,0,0,0,1,2.5v17A1.5,1.5,0,0,0,2.5,21h26a1.5,1.5,0,0,0,1.5-1.5V2.5A1.5,1.5,0,0,0,28.51,1Z"/>
			<path d="M15.51,13.54a2.8,2.8,0,0,1-1.84-.66L.89,1.74A.5.5,0,0,1,1.55,1L14.33,12.12a1.87,1.87,0,0,0,2.36,0L29.46,1a.5.5,0,0,1,.66.75L17.34,12.87A2.79,2.79,0,0,1,15.51,13.54Z"/>
		</g>
	</g>
</svg>