<svg xmlns="http://www.w3.org/2000/svg" viewBox="0 0 34 60">
	<g id="Слой_2" data-name="Слой 2">
		<g id="Capa_1" data-name="Capa 1">
			<path d="M29.6,0H4.4A4.44,4.44,0,0,0,0,4.4V55.6A4.44,4.44,0,0,0,4.4,60H29.6A4.44,4.44,0,0,0,34,55.6V4.4A4.44,4.44,0,0,0,29.6,0ZM2,8H32V46H2ZM4.4,2H29.6A2.43,2.43,0,0,1,32,4.4V6H2V4.4A2.43,2.43,0,0,1,4.4,2ZM29.6,58H4.4A2.43,2.43,0,0,1,2,55.6V48H32v7.6A2.43,2.43,0,0,1,29.6,58Z"/>
			<path d="M17,49a4,4,0,1,0,4,4A4,4,0,0,0,17,49Zm0,6a2,2,0,1,1,2-2A2,2,0,0,1,17,55Z"/>
		</g>
	</g>
</svg>