<svg xmlns="http://www.w3.org/2000/svg" viewBox="0 0 512 512">
	<defs>
		<style>.cls-1{fill:#59aae7;}.cls-2{fill:#3d9ae3;}.cls-3{fill:#fcfcfc;}.cls-4{fill:#d8d7da;}</style>
	</defs>
	<g id="Слой_2" data-name="Слой 2">
		<g id="Layer_1" data-name="Layer 1">
			<circle class="cls-1" cx="256" cy="256" r="256"/>
			<path class="cls-2"
			      d="M256,0a258.53,258.53,0,0,0-33.39,2.17C348.22,18.53,445.22,125.93,445.22,256s-97,237.47-222.61,253.83A258.55,258.55,0,0,0,256,512c141.39,0,256-114.62,256-256S397.39,0,256,0Z"/>
			<path class="cls-3"
			      d="M164.69,311.14,82.13,269.86a3.09,3.09,0,0,1,0-5.52L395.75,102.11a3.09,3.09,0,0,1,4.46,3.36l-54,270a3.09,3.09,0,0,1-4.25,2.24l-73.39-31.45a3.09,3.09,0,0,0-2.72.14L171,399.09a3.09,3.09,0,0,1-4.6-2.7V313.91A3.09,3.09,0,0,0,164.69,311.14Z"/>
			<path class="cls-4"
			      d="M200.31,339l-.51-82.43a1.5,1.5,0,0,1,.72-1.29l133.9-81.8a1.5,1.5,0,0,1,1.85,2.35L234.37,278.42a1.52,1.52,0,0,0-.28.39l-17.43,34.86-13.51,26A1.5,1.5,0,0,1,200.31,339Z"/>
		</g>
	</g>
</svg>