<svg xmlns="http://www.w3.org/2000/svg" viewBox="0 0 280.76 329.26">
	<g id="Слой_2" data-name="Слой 2">
		<g id="Capa_1" data-name="Capa 1">
			<path d="M257.85,101.48a75.64,75.64,0,0,0-56-25.08,73.36,73.36,0,0,0-11.16.76q-2.64.4-5.2,1a104,104,0,0,0-24.84-48.24,89.25,89.25,0,0,0-133.28-.08,107.56,107.56,0,0,0,0,143.36,92,92,0,0,0,47.8,28v.64a18.68,18.68,0,0,0,5.2,12.92l.4.32a18.83,18.83,0,0,0,7.72,4.68,24.88,24.88,0,0,1-8,15.6c-8.08,9-18,20-18,61.92a5.32,5.32,0,0,0,10.6,0c0-37.88,8.4-47.2,15.24-54.84a33.24,33.24,0,0,0,10.92-22.56,18.91,18.91,0,0,0,8-4.8,18.72,18.72,0,0,0,5.52-13.24v-.64a88,88,0,0,0,16.88-5.56,84.4,84.4,0,0,0,26.68,35.28,75.57,75.57,0,0,0,29.12,13.72,16.52,16.52,0,0,0,10.88,15.28,20,20,0,0,1-6.28,11.56c-6.8,7.68-15.12,16.92-15.12,52a5.26,5.26,0,0,0,0,.92,5.32,5.32,0,0,0,10.6-.92c0-31.08,6.8-38.6,12.6-44.76a28.28,28.28,0,0,0,9-18.6,16.6,16.6,0,0,0,6.48-4,16.4,16.4,0,0,0,4.84-11.4,77.08,77.08,0,0,0,39.36-23.24A90,90,0,0,0,257.85,101.48Zm-158,106-.21.21a8,8,0,0,1-11.31-.21l-.2-.2A8,8,0,0,1,86,202.8a36.63,36.63,0,0,0,4.84.32h7.36l4-.28A8,8,0,0,1,99.85,207.52ZM81.45,191.6a80.84,80.84,0,0,1-46.12-25.44,97,97,0,0,1,0-129,78.44,78.44,0,0,1,117.56,0,94.84,94.84,0,0,1,24.28,62.16v9.4a94.44,94.44,0,0,1-24.56,57.44A84,84,0,0,1,130,183.6,77.24,77.24,0,0,1,81.45,191.6ZM206,248.6l0,0a5.83,5.83,0,0,1-9.66-2.3h11l.12,0A5.79,5.79,0,0,1,206,248.6Zm44.28-34.32a65.2,65.2,0,0,1-47.16,21.64h-2.28a63.15,63.15,0,0,1-8.8-.8,64.59,64.59,0,0,1-28.6-12.52,73.84,73.84,0,0,1-23.64-31.76,95.33,95.33,0,0,0,21.44-17.44A104.88,104.88,0,0,0,188,112.76V98q-.16-4.76-.72-9.4a45.93,45.93,0,0,1,5.4-1,63.09,63.09,0,0,1,9.56-.72,65.12,65.12,0,0,1,48,21.64A79.52,79.52,0,0,1,250.25,214.28Z"/>
		</g>
	</g>
</svg>