<svg xmlns="http://www.w3.org/2000/svg" viewBox="0 0 330.34 324">
	<g id="Слой_2" data-name="Слой 2">
		<g id="Capa_1" data-name="Capa 1">
			<path d="M306.76,162.76a8.09,8.09,0,0,0-10.39-4.83l-75.89,27.8,61.34-61.29a8.12,8.12,0,0,0,0-11.46L234.37,65.5a8.1,8.1,0,0,0-11.45,0l-60.16,60.12,33.74-80A8.08,8.08,0,0,0,192.18,35L130.34,8.9a8.09,8.09,0,0,0-10.61,4.32l-33.32,79V8.1A8.1,8.1,0,0,0,78.3,0H8.1A8.1,8.1,0,0,0,0,8.1V315.9A8.1,8.1,0,0,0,8.1,324H78.3a8.12,8.12,0,0,0,2.8-.53,7.71,7.71,0,0,0,5.52,0L325,236.17a8.1,8.1,0,0,0,4.82-10.39ZM47.88,307.8H16.2V16.2h54V307.8H47.88Zm130.54-261L132.38,156,124,175.76l-8.35,19.79-14.24,33.79-8.6,20.4L86.4,265V134L131.51,27ZM113.64,242.12l8.6-20.4,23.83-56.53,82.56-82.51,36,36L184.3,199l-27.25,27.23L93.63,289.6Zm-6.09,56.47L193.22,213l101.11-37,17.51,47.81Z"/>
			<path d="M43.2,274.5c-.36,0-.69.08-1,.1a11.68,11.68,0,0,0-10.31,8.86,11.76,11.76,0,0,0-.36,2.74,11.77,11.77,0,0,0,11.7,11.7,10.65,10.65,0,0,0,1.65-.17A11.57,11.57,0,0,0,51,294.88a11.72,11.72,0,0,0,2.11-2.48,11.52,11.52,0,0,0,1.71-5.17c0-.35.1-.69.1-1A11.68,11.68,0,0,0,43.2,274.5Z"/>
		</g>
	</g>
</svg>