<svg xmlns="http://www.w3.org/2000/svg" viewBox="0 0 384 368">
	<g id="Слой_2" data-name="Слой 2">
		<g id="Capa_1" data-name="Capa 1">
			<path d="M319.94,129.23c0-.42.06-.82.06-1.23a128,128,0,0,0-256,0c0,.42.06.82.06,1.23A127.9,127.9,0,1,0,192,350.74a127.9,127.9,0,1,0,127.94-221.5ZM192,16c59.49,0,108.14,46.66,111.66,105.26a127.26,127.26,0,0,0-111.66,8,127.26,127.26,0,0,0-111.66-8C83.86,62.66,132.51,16,192,16Zm0,132.21a112,112,0,0,1,47.46,81.09,110.55,110.55,0,0,1-94.91,0A112,112,0,0,1,192,148.21Zm-62.43,72.74a112,112,0,0,1-49-82.24,110.55,110.55,0,0,1,96.43.74A127.73,127.73,0,0,0,129.57,220.94ZM207,139.44a110.55,110.55,0,0,1,96.43-.74,112.07,112.07,0,0,1-49,82.24A127.73,127.73,0,0,0,207,139.44ZM128,352A112,112,0,0,1,65.57,147.06a127.86,127.86,0,0,0,62.5,91.71c0,.42-.06.82-.06,1.23a127.65,127.65,0,0,0,49,100.56A111.09,111.09,0,0,1,128,352Zm64-20.22a111.91,111.91,0,0,1-47.66-85,127.25,127.25,0,0,0,95.33,0A111.83,111.83,0,0,1,192,331.78ZM256,352a111.09,111.09,0,0,1-49-11.44A127.65,127.65,0,0,0,256,240c0-.42-.06-.82-.06-1.23a128,128,0,0,0,62.5-91.71A112,112,0,0,1,256,352Z"/>
		</g>
	</g>
</svg>